<mxfile host="65bd71144e">
    <diagram id="wGuppr9kJ32sMvLZwhZV" name="Page-1">
        <mxGraphModel dx="353" dy="524" grid="1" gridSize="10" guides="1" tooltips="1" connect="1" arrows="1" fold="1" page="1" pageScale="1" pageWidth="850" pageHeight="1100" math="0" shadow="0">
            <root>
                <mxCell id="0"/>
                <mxCell id="1" parent="0"/>
                <mxCell id="8" value="&lt;a href=&quot;https://nima101.github.io/io_multiplexing&quot;&gt;&lt;font style=&quot;font-size: 19px;&quot;&gt;poll vs select vs epoll vs kqueue&lt;/font&gt;&lt;/a&gt;" style="rounded=1;whiteSpace=wrap;html=1;" parent="1" vertex="1">
                    <mxGeometry x="50" y="130" width="300" height="60" as="geometry"/>
                </mxCell>
                <mxCell id="9" value="&lt;a href=&quot;https://www.geeksforgeeks.org/socket-programming-cc/&quot;&gt;&lt;font style=&quot;font-size: 17px;&quot;&gt;Sockets&lt;/font&gt;&lt;/a&gt;" style="rounded=1;whiteSpace=wrap;html=1;" parent="1" vertex="1">
                    <mxGeometry x="580" y="150" width="120" height="60" as="geometry"/>
                </mxCell>
                <mxCell id="10" value="RTFM" style="ellipse;whiteSpace=wrap;html=1;fontSize=15;" parent="1" vertex="1">
                    <mxGeometry x="380" y="270" width="120" height="80" as="geometry"/>
                </mxCell>
                <mxCell id="11" value="" style="endArrow=classic;html=1;fontSize=15;" parent="1" source="10" target="8" edge="1">
                    <mxGeometry width="50" height="50" relative="1" as="geometry">
                        <mxPoint x="380" y="400" as="sourcePoint"/>
                        <mxPoint x="430" y="350" as="targetPoint"/>
                    </mxGeometry>
                </mxCell>
                <mxCell id="12" value="" style="endArrow=classic;html=1;fontSize=15;" parent="1" source="10" target="9" edge="1">
                    <mxGeometry width="50" height="50" relative="1" as="geometry">
                        <mxPoint x="470" y="280" as="sourcePoint"/>
                        <mxPoint x="520" y="230" as="targetPoint"/>
                    </mxGeometry>
                </mxCell>
                <mxCell id="15" value="" style="endArrow=classic;html=1;fontColor=#FFFFFF;" parent="1" source="10" target="16" edge="1">
                    <mxGeometry width="50" height="50" relative="1" as="geometry">
                        <mxPoint x="600" y="350" as="sourcePoint"/>
                        <mxPoint x="630" y="323.33333333333337" as="targetPoint"/>
                        <Array as="points"/>
                    </mxGeometry>
                </mxCell>
                <mxCell id="16" value="&lt;a href=&quot;https://modern.ircdocs.horse/&quot; style=&quot;font-size: 16px;&quot;&gt;Modern IRC Client Protokoll&lt;/a&gt;" style="rounded=1;whiteSpace=wrap;html=1;fontSize=16;" parent="1" vertex="1">
                    <mxGeometry x="610" y="280" width="290" height="60" as="geometry"/>
                </mxCell>
                <mxCell id="17" value="512 char limit for msg&lt;br&gt;-you can only type. 401 chars in a msg" style="rounded=1;whiteSpace=wrap;html=1;" parent="1" vertex="1">
                    <mxGeometry x="90" y="520" width="350" height="60" as="geometry"/>
                </mxCell>
                <mxCell id="20" value="&lt;a href=&quot;https://www.rfc-editor.org/rfc/rfc1459#section-4.2.3.1&quot;&gt;IRC_DOC&lt;/a&gt;" style="rounded=1;whiteSpace=wrap;html=1;" vertex="1" parent="1">
                    <mxGeometry x="90" y="270" width="120" height="60" as="geometry"/>
                </mxCell>
                <mxCell id="21" value="" style="endArrow=classic;html=1;" edge="1" parent="1" source="10" target="20">
                    <mxGeometry width="50" height="50" relative="1" as="geometry">
                        <mxPoint x="290" y="330" as="sourcePoint"/>
                        <mxPoint x="340" y="280" as="targetPoint"/>
                    </mxGeometry>
                </mxCell>
            </root>
        </mxGraphModel>
    </diagram>
</mxfile>